# xmcd
#
# Track frame offsets: 
#        150
#        15735
#        39985
#        60589
#        84260
#        99987
#        124875
#        140227
#        160900
#        183115
#        202547
#        217402
#
# Disc length: 3201 seconds
#
# Revision: 2
# Processed by: cddbd v1.5.2PL0 Copyright (c) Steve Scherf et al.
# Submitted via: ExactAudioCopy v0.99pb4
#
DISCID=9d0c7f0c
DTITLE=Mark Salllings and The Famous Unknowns - Talkin' To Myself
DYEAR=1997
DGENRE=Blues
TTITLE0=Rocket 88
TTITLE1=Trash Talkin'
TTITLE2=The Crawl
TTITLE3=Selfish With My Time
TTITLE4=Critter
TTITLE5=Up Close And  Personal
TTITLE6=Big V 8
TTITLE7=Everybody Looks Blue To Me
TTITLE8=Talkin' To Myself
TTITLE9=Rich Man's Woman
TTITLE10=Get Some Rest
TTITLE11=One More Chance With You
EXTD=
EXTT0=
EXTT1=
EXTT2=
EXTT3=
EXTT4=
EXTT5=
EXTT6=
EXTT7=
EXTT8=
EXTT9=
EXTT10=
EXTT11=
PLAYORDER=
